<svg width="32" height="32" viewBox="0 0 32 32" fill="none" xmlns="http://www.w3.org/2000/svg">
<circle cx="16" cy="16" r="16" fill="white" fill-opacity="0.23"/>
<circle cx="16" cy="16" r="15.619" stroke="#1E1E1E" stroke-opacity="0.15" stroke-width="0.761905"/>
<path fill-rule="evenodd" clip-rule="evenodd" d="M16.4445 11.2677L12.4272 13.2764C12.215 13.3825 12.0429 13.5546 11.9368 13.7668C11.715 14.2103 11.5658 14.6796 11.4892 15.1577H22.199V16.6815H11.4892C11.5658 17.1596 11.715 17.6288 11.9368 18.0724C12.0429 18.2846 12.215 18.4567 12.4272 18.5628L16.4445 20.5715L15.7631 21.9344L11.7458 19.9257C11.2386 19.6722 10.8274 19.261 10.5739 18.7538C9.68176 16.9696 9.68176 14.8695 10.5739 13.0853C10.8274 12.5782 11.2386 12.167 11.7458 11.9134L12.0729 12.5677L11.7458 11.9134L15.7631 9.90479L16.4445 11.2677Z" fill="#081C1C"/>
</svg>
