<svg width="60" height="60" viewBox="0 0 60 60" fill="none" xmlns="http://www.w3.org/2000/svg">
<circle cx="30" cy="30" r="30" fill="#2A9E39"/>
<path d="M30.93 18.6667H29.0708C28.118 18.6667 27.6416 18.6667 27.2143 18.816C26.9534 18.9072 26.7083 19.0384 26.4877 19.2049C26.1264 19.4776 25.8622 19.8739 25.3337 20.6667C25.063 21.0727 24.664 21.6712 24.505 21.8383C24.1109 22.2524 23.5943 22.5289 23.0311 22.6271C22.8039 22.6667 22.5599 22.6667 22.0719 22.6667C20.7651 22.6667 20.1118 22.6667 19.5775 22.8179C18.2411 23.1962 17.1965 24.2408 16.8182 25.5772C16.667 26.1114 16.667 26.7648 16.667 28.0716V33.3334C16.667 37.1046 16.667 38.9902 17.8386 40.1618C19.0101 41.3334 20.8958 41.3334 24.667 41.3334H35.3337C39.1049 41.3334 40.9905 41.3334 42.1621 40.1618C43.3337 38.9902 43.3337 37.1046 43.3337 33.3334V28.0716C43.3337 26.7648 43.3337 26.1114 43.1825 25.5772C42.8041 24.2408 41.7596 23.1962 40.4232 22.8179C39.8889 22.6667 39.2356 22.6667 37.9288 22.6667C37.4408 22.6667 37.1968 22.6667 36.9696 22.6271C36.4064 22.5289 35.8897 22.2524 35.4957 21.8383C35.3366 21.6712 34.9377 21.0727 34.667 20.6667C34.1385 19.8739 33.8742 19.4776 33.513 19.2049C33.2924 19.0384 33.0473 18.9072 32.7864 18.816C32.3592 18.6667 31.8828 18.6667 30.93 18.6667Z" stroke="white" stroke-width="1.8" stroke-linecap="round" stroke-linejoin="round"/>
<path d="M35.3337 31.3333C35.3337 34.2788 32.9458 36.6667 30.0004 36.6667C27.0548 36.6667 24.667 34.2788 24.667 31.3333C24.667 28.3879 27.0548 26 30.0004 26C32.9458 26 35.3337 28.3879 35.3337 31.3333Z" stroke="white" stroke-width="1.8" stroke-linecap="round" stroke-linejoin="round"/>
<path d="M39.3335 26.6667V26.68" stroke="white" stroke-width="1.8" stroke-linecap="round" stroke-linejoin="round"/>
</svg>
