<svg width="28" height="28" viewBox="0 0 28 28" fill="none" xmlns="http://www.w3.org/2000/svg">
<rect x="1" y="1" width="26" height="26" rx="13" fill="#2A9E39"/>
<rect x="1" y="1" width="26" height="26" rx="13" stroke="#222E27" stroke-width="2"/>
<path d="M14.7278 9.14666L9.98423 14.1675C9.80512 14.3582 9.63178 14.7338 9.59712 14.9938L9.38334 16.8658C9.30823 17.5418 9.79356 18.004 10.4638 17.8884L12.3242 17.5707C12.5842 17.5244 12.9482 17.3338 13.1273 17.1373L17.8709 12.1164C18.6913 11.2498 19.0611 10.2618 17.7842 9.05421C16.5131 7.85821 15.5482 8.27999 14.7278 9.14666Z" stroke="white" stroke-width="1.04" stroke-miterlimit="10" stroke-linecap="round" stroke-linejoin="round"/>
<path d="M13.9363 9.98438C14.1847 11.579 15.4789 12.7982 17.0852 12.9599" stroke="white" stroke-width="1.04" stroke-miterlimit="10" stroke-linecap="round" stroke-linejoin="round"/>
<path d="M8.79974 19.7778H19.1997" stroke="white" stroke-width="1.04" stroke-miterlimit="10" stroke-linecap="round" stroke-linejoin="round"/>
</svg>
