<svg width="60" height="60" viewBox="0 0 60 60" fill="none" xmlns="http://www.w3.org/2000/svg">
<rect width="60" height="60" rx="30" fill="#F9F9F9"/>
<rect x="0.5" y="0.5" width="59" height="59" rx="29.5" stroke="black" stroke-opacity="0.02"/>
<path d="M38.0656 29.3332C38.0441 28.2164 38.3306 27.1157 38.8931 26.1551C39.4555 25.1945 40.2714 24.412 41.2489 23.8959C40.6333 23.0285 39.8295 22.316 38.8993 21.8132C37.969 21.3104 36.9375 21.0309 35.8838 20.996C33.6125 20.8148 31.1446 22.3372 30.2325 22.3372C29.3204 22.3372 27.0671 21.0685 25.3502 21.0685C21.7735 21.0685 18 23.9503 18 29.6957C18.0172 31.4865 18.3254 33.2624 18.9121 34.9517C19.699 37.2717 22.6498 43.0896 25.7258 42.999C27.3353 42.999 28.4799 41.839 30.5723 41.839C32.6647 41.839 33.6483 42.999 35.4545 42.999C38.5484 42.999 41.231 37.6523 42 35.278C40.8356 34.7953 39.8395 33.9721 39.1388 32.9133C38.4379 31.8545 38.0643 30.6081 38.0656 29.3332ZM34.4888 18.6942C35.0445 18.0592 35.4635 17.3138 35.7191 16.5056C35.9746 15.6974 36.0612 14.844 35.9732 14C34.3034 14.1856 32.7611 14.9929 31.6453 16.2655C31.0684 16.8816 30.6229 17.6116 30.3368 18.4099C30.0506 19.2082 29.9299 20.0577 29.9821 20.9054C30.8481 20.93 31.7072 20.7418 32.4857 20.3567C33.2643 19.9716 33.9393 19.4012 34.4531 18.6942H34.4888Z" fill="#23262F"/>
</svg>
