<svg width="60" height="60" viewBox="0 0 60 60" fill="none" xmlns="http://www.w3.org/2000/svg">
<rect width="60" height="60" rx="30" fill="#F9F9F9"/>
<rect x="0.5" y="0.5" width="59" height="59" rx="29.5" stroke="black" stroke-opacity="0.02"/>
<path fill-rule="evenodd" clip-rule="evenodd" d="M41.9999 30.2737C42.001 29.4561 41.9304 28.6397 41.7892 27.8339H30.2428V32.4554H36.856C36.5826 33.9469 35.6992 35.2642 34.4106 36.1019V39.1018H38.3576C40.6685 37.0135 41.9999 33.9253 41.9999 30.2737Z" fill="#4285F4"/>
<path fill-rule="evenodd" clip-rule="evenodd" d="M30.2434 42C33.5475 42 36.3295 40.9365 38.3582 39.1034L34.4113 36.1035C33.3129 36.8335 31.8981 37.2501 30.2434 37.2501C27.05 37.2501 24.3394 35.1402 23.3702 32.2969H19.3042V35.3884C21.3824 39.4417 25.6152 41.9996 30.2434 42Z" fill="#34A853"/>
<path fill-rule="evenodd" clip-rule="evenodd" d="M23.3697 32.2969C22.8572 30.8071 22.8572 29.1935 23.3697 27.7037V24.6121H19.3037C17.5654 28.0022 17.5654 31.9984 19.3037 35.3885L23.3697 32.2969Z" fill="#FBBC04"/>
<path fill-rule="evenodd" clip-rule="evenodd" d="M30.2434 22.7507C31.9894 22.7226 33.6765 23.3693 34.9403 24.5507L38.4347 21.1257C36.2188 19.086 33.2832 17.9661 30.2434 18.0008C25.6152 18.001 21.3824 20.5591 19.3042 24.6122L23.3702 27.7037C24.3394 24.8606 27.05 22.7507 30.2434 22.7507Z" fill="#EA4335"/>
</svg>
