<svg width="42" height="43" viewBox="0 0 42 43" fill="none" xmlns="http://www.w3.org/2000/svg">
<circle cx="21" cy="21.5" r="21" fill="#F4F8FB"/>
<path d="M13.6106 23.931V16.8524C13.6106 15.8697 14.1796 15.6333 14.8741 16.3278L16.7878 18.2415C17.076 18.5297 17.5489 18.5297 17.8297 18.2415L20.4749 15.5889C20.7631 15.3008 21.236 15.3008 21.5167 15.5889L24.1693 18.2415C24.4575 18.5297 24.9304 18.5297 25.2112 18.2415L27.1249 16.3278C27.8195 15.6333 28.3884 15.8697 28.3884 16.8524V23.9384C28.3884 26.155 26.9106 27.6328 24.694 27.6328H17.3051C15.2657 27.6254 13.6106 25.9703 13.6106 23.931Z" stroke="#131313" stroke-linecap="round" stroke-linejoin="round"/>
</svg>
