<svg width="141" height="45" viewBox="0 0 141 45" fill="none" xmlns="http://www.w3.org/2000/svg">
<path d="M64.2033 15.8073V16.3405C64.2033 17.1957 64.0874 17.9633 63.8556 18.6433C63.6237 19.3233 63.2966 19.9029 62.8742 20.382C62.4517 20.8559 61.9469 21.2191 61.3596 21.4716C60.7774 21.724 60.1309 21.8502 59.4199 21.8502C58.7142 21.8502 58.0676 21.724 57.4803 21.4716C56.8982 21.2191 56.3933 20.8559 55.9657 20.382C55.5381 19.9029 55.2058 19.3233 54.9689 18.6433C54.737 17.9633 54.6211 17.1957 54.6211 16.3405V15.8073C54.6211 14.9469 54.737 14.1793 54.9689 13.5044C55.2007 12.8244 55.5278 12.2448 55.9503 11.7657C56.3779 11.2866 56.8827 10.9209 57.4649 10.6684C58.0522 10.416 58.6987 10.2898 59.4045 10.2898C60.1154 10.2898 60.762 10.416 61.3441 10.6684C61.9314 10.9209 62.4363 11.2866 62.8587 11.7657C63.2863 12.2448 63.616 12.8244 63.8478 13.5044C64.0848 14.1793 64.2033 14.9469 64.2033 15.8073ZM61.8619 16.3405V15.7918C61.8619 15.1942 61.8078 14.6687 61.6996 14.2154C61.5914 13.762 61.4317 13.3808 61.2205 13.0717C61.0092 12.7626 60.7517 12.5308 60.4477 12.3762C60.1438 12.2165 59.796 12.1367 59.4045 12.1367C59.013 12.1367 58.6652 12.2165 58.3613 12.3762C58.0625 12.5308 57.8075 12.7626 57.5962 13.0717C57.3902 13.3808 57.233 13.762 57.1249 14.2154C57.0167 14.6687 56.9626 15.1942 56.9626 15.7918V16.3405C56.9626 16.9329 57.0167 17.4584 57.1249 17.9169C57.233 18.3702 57.3927 18.754 57.604 19.0683C57.8152 19.3774 58.0728 19.6118 58.3767 19.7715C58.6807 19.9312 59.0284 20.0111 59.4199 20.0111C59.8115 20.0111 60.1592 19.9312 60.4632 19.7715C60.7671 19.6118 61.0221 19.3774 61.2282 19.0683C61.4343 18.754 61.5914 18.3702 61.6996 17.9169C61.8078 17.4584 61.8619 16.9329 61.8619 16.3405ZM67.9589 14.9418V24.9104H65.7334V13.3344H67.7966L67.9589 14.9418ZM73.2523 17.4223V17.5846C73.2523 18.1925 73.1802 18.7566 73.0359 19.2769C72.8968 19.7973 72.6908 20.2506 72.4177 20.637C72.1447 21.0182 71.8047 21.317 71.3977 21.5334C70.9959 21.7446 70.5322 21.8502 70.0067 21.8502C69.4967 21.8502 69.0537 21.7472 68.6776 21.5411C68.3015 21.3351 67.9847 21.0466 67.7271 20.6756C67.4747 20.2996 67.2712 19.8642 67.1166 19.3697C66.9621 18.8751 66.8436 18.3445 66.7611 17.7778V17.3528C66.8436 16.7449 66.9621 16.1885 67.1166 15.6836C67.2712 15.1736 67.4747 14.7331 67.7271 14.3622C67.9847 13.9861 68.2989 13.6951 68.6699 13.489C69.0459 13.2829 69.4864 13.1799 69.9913 13.1799C70.5219 13.1799 70.9881 13.2803 71.39 13.4813C71.797 13.6822 72.137 13.9707 72.41 14.3467C72.6882 14.7228 72.8968 15.171 73.0359 15.6913C73.1802 16.2117 73.2523 16.7887 73.2523 17.4223ZM71.019 17.5846V17.4223C71.019 17.0669 70.9881 16.7397 70.9263 16.4409C70.8696 16.137 70.7769 15.8717 70.6481 15.645C70.5245 15.4183 70.3596 15.2431 70.1536 15.1195C69.9526 14.9907 69.7079 14.9263 69.4194 14.9263C69.1155 14.9263 68.8553 14.9753 68.6389 15.0731C68.4277 15.171 68.2551 15.3127 68.1212 15.4982C67.9873 15.6836 67.8868 15.9051 67.8198 16.1627C67.7529 16.4203 67.7116 16.7114 67.6962 17.0359V18.1101C67.7219 18.4913 67.7941 18.8339 67.9126 19.1378C68.031 19.4366 68.2139 19.6736 68.4612 19.8488C68.7085 20.0239 69.0331 20.1115 69.4349 20.1115C69.7285 20.1115 69.9758 20.0471 70.1767 19.9183C70.3777 19.7844 70.5399 19.6015 70.6636 19.3697C70.7924 19.1378 70.8825 18.87 70.934 18.566C70.9907 18.2621 71.019 17.9349 71.019 17.5846ZM78.4839 21.8502C77.8348 21.8502 77.2526 21.7472 76.7375 21.5411C76.2223 21.3299 75.7844 21.0388 75.4238 20.6679C75.0683 20.297 74.7953 19.8668 74.6046 19.3774C74.414 18.8828 74.3187 18.3574 74.3187 17.801V17.4919C74.3187 16.8582 74.4089 16.2786 74.5892 15.7532C74.7695 15.2277 75.0271 14.7718 75.3619 14.3854C75.702 13.999 76.1141 13.7028 76.5984 13.4967C77.0826 13.2855 77.6287 13.1799 78.2366 13.1799C78.8291 13.1799 79.3545 13.2778 79.813 13.4735C80.2715 13.6693 80.6553 13.9475 80.9644 14.3081C81.2787 14.6687 81.5157 15.1015 81.6754 15.6063C81.8351 16.1061 81.9149 16.6624 81.9149 17.2755V18.2028H75.2692V16.7191H79.728V16.5491C79.728 16.24 79.6714 15.9644 79.558 15.7223C79.4498 15.475 79.285 15.2792 79.0635 15.135C78.8419 14.9907 78.5586 14.9186 78.2134 14.9186C77.9198 14.9186 77.6673 14.983 77.4561 15.1118C77.2449 15.2406 77.0723 15.4209 76.9384 15.6527C76.8096 15.8845 76.7117 16.1576 76.6447 16.4718C76.5829 16.7809 76.552 17.121 76.552 17.4919V17.801C76.552 18.1358 76.5984 18.4449 76.6911 18.7283C76.789 19.0116 76.9255 19.2563 77.1006 19.4624C77.281 19.6685 77.4973 19.8282 77.7498 19.9415C78.0074 20.0549 78.2984 20.1115 78.623 20.1115C79.0248 20.1115 79.3983 20.0342 79.7435 19.8797C80.0938 19.72 80.3952 19.4804 80.6476 19.161L81.7295 20.3356C81.5543 20.5881 81.3148 20.8302 81.0108 21.062C80.712 21.2938 80.3514 21.4845 79.9289 21.6339C79.5065 21.7781 79.0248 21.8502 78.4839 21.8502ZM85.3614 15.1195V21.6957H83.1359V13.3344H85.2223L85.3614 15.1195ZM85.0369 17.2214H84.4341C84.4341 16.6032 84.514 16.0468 84.6737 15.5523C84.8334 15.0525 85.0575 14.6275 85.346 14.2772C85.6345 13.9217 85.9771 13.6513 86.3737 13.4658C86.7756 13.2752 87.2238 13.1799 87.7183 13.1799C88.1099 13.1799 88.4679 13.2366 88.7925 13.3499C89.117 13.4632 89.3952 13.6435 89.6271 13.8908C89.864 14.1381 90.0443 14.4652 90.168 14.8722C90.2968 15.2792 90.3612 15.7764 90.3612 16.3636V21.6957H88.1202V16.3559C88.1202 15.985 88.0687 15.6965 87.9656 15.4904C87.8626 15.2844 87.7106 15.1401 87.5097 15.0577C87.3139 14.9701 87.0718 14.9263 86.7833 14.9263C86.4845 14.9263 86.2243 14.9856 86.0028 15.1041C85.7864 15.2225 85.6061 15.3874 85.4619 15.5986C85.3228 15.8047 85.2172 16.0468 85.1451 16.325C85.0729 16.6032 85.0369 16.902 85.0369 17.2214ZM96.5742 17.6851H93.7072V15.8768H96.5742C97.0172 15.8768 97.3778 15.8047 97.656 15.6604C97.9342 15.511 98.1377 15.305 98.2665 15.0422C98.3953 14.7795 98.4597 14.4833 98.4597 14.1536C98.4597 13.8187 98.3953 13.507 98.2665 13.2185C98.1377 12.93 97.9342 12.6982 97.656 12.523C97.3778 12.3479 97.0172 12.2603 96.5742 12.2603H94.5109V21.6957H92.1926V10.4443H96.5742C97.4551 10.4443 98.2098 10.604 98.8383 10.9234C99.472 11.2377 99.9563 11.673 100.291 12.2294C100.626 12.7858 100.793 13.422 100.793 14.1381C100.793 14.8645 100.626 15.493 100.291 16.0236C99.9563 16.5543 99.472 16.9638 98.8383 17.2523C98.2098 17.5408 97.4551 17.6851 96.5742 17.6851ZM106.674 19.8101V16.0855C106.674 15.8176 106.63 15.5883 106.543 15.3977C106.455 15.2019 106.319 15.05 106.133 14.9418C105.953 14.8336 105.718 14.7795 105.43 14.7795C105.183 14.7795 104.969 14.8233 104.789 14.9109C104.608 14.9933 104.469 15.1144 104.371 15.2741C104.273 15.4286 104.224 15.6115 104.224 15.8227H101.999C101.999 15.4672 102.081 15.1298 102.246 14.8104C102.411 14.491 102.651 14.2102 102.965 13.9681C103.279 13.7208 103.653 13.5276 104.085 13.3885C104.523 13.2494 105.013 13.1799 105.554 13.1799C106.203 13.1799 106.78 13.2881 107.285 13.5044C107.789 13.7208 108.186 14.0454 108.475 14.4781C108.768 14.9109 108.915 15.4518 108.915 16.1009V19.6788C108.915 20.1373 108.943 20.5134 109 20.807C109.057 21.0955 109.139 21.3479 109.247 21.5643V21.6957H106.999C106.89 21.469 106.808 21.1857 106.751 20.8456C106.7 20.5005 106.674 20.1553 106.674 19.8101ZM106.968 16.6032L106.983 17.8628H105.739C105.445 17.8628 105.19 17.8963 104.974 17.9633C104.758 18.0302 104.58 18.1255 104.441 18.2492C104.302 18.3677 104.199 18.5068 104.132 18.6665C104.07 18.8262 104.039 19.0013 104.039 19.1919C104.039 19.3826 104.083 19.5551 104.17 19.7097C104.258 19.8591 104.384 19.9776 104.549 20.0652C104.714 20.1476 104.907 20.1888 105.129 20.1888C105.463 20.1888 105.755 20.1218 106.002 19.9879C106.249 19.8539 106.44 19.6891 106.574 19.4933C106.713 19.2976 106.785 19.1121 106.79 18.9369L107.377 19.8797C107.295 20.0909 107.182 20.3099 107.037 20.5365C106.898 20.7632 106.72 20.977 106.504 21.1779C106.288 21.3737 106.028 21.536 105.724 21.6648C105.42 21.7884 105.059 21.8502 104.642 21.8502C104.111 21.8502 103.629 21.7446 103.197 21.5334C102.769 21.317 102.429 21.0208 102.177 20.6447C101.929 20.2635 101.806 19.8308 101.806 19.3465C101.806 18.9086 101.888 18.5196 102.053 18.1796C102.218 17.8396 102.46 17.5537 102.779 17.3219C103.104 17.0849 103.508 16.9072 103.993 16.7887C104.477 16.665 105.038 16.6032 105.677 16.6032H106.968ZM112.98 9.82611V21.6957H110.747V9.82611H112.98ZM117.045 15.0654V21.6957H114.811V13.3344H116.905L117.045 15.0654ZM116.735 17.2214H116.117C116.117 16.6393 116.187 16.1035 116.326 15.6141C116.47 15.1195 116.679 14.6919 116.952 14.3313C117.23 13.9655 117.573 13.6822 117.98 13.4813C118.387 13.2803 118.858 13.1799 119.394 13.1799C119.765 13.1799 120.105 13.2366 120.414 13.3499C120.723 13.4581 120.988 13.6307 121.21 13.8676C121.436 14.0995 121.612 14.4034 121.735 14.7795C121.859 15.1504 121.921 15.596 121.921 16.1164V21.6957H119.695V16.3636C119.695 15.9824 119.644 15.6888 119.541 15.4827C119.437 15.2766 119.291 15.1324 119.1 15.05C118.915 14.9675 118.69 14.9263 118.428 14.9263C118.139 14.9263 117.887 14.9856 117.67 15.1041C117.459 15.2225 117.284 15.3874 117.145 15.5986C117.006 15.8047 116.903 16.0468 116.836 16.325C116.769 16.6032 116.735 16.902 116.735 17.2214ZM121.712 16.9664L120.916 17.0669C120.916 16.5208 120.983 16.0133 121.117 15.5445C121.256 15.0757 121.46 14.6636 121.727 14.3081C122 13.9526 122.338 13.677 122.74 13.4813C123.142 13.2803 123.605 13.1799 124.131 13.1799C124.533 13.1799 124.898 13.2391 125.228 13.3576C125.558 13.471 125.839 13.6538 126.07 13.9063C126.307 14.1536 126.488 14.4781 126.611 14.88C126.74 15.2818 126.804 15.7738 126.804 16.3559V21.6957H124.571V16.3559C124.571 15.9695 124.52 15.6759 124.417 15.475C124.319 15.2689 124.174 15.1272 123.984 15.05C123.798 14.9675 123.577 14.9263 123.319 14.9263C123.051 14.9263 122.817 14.9804 122.616 15.0886C122.415 15.1916 122.248 15.3359 122.114 15.5213C121.98 15.7068 121.879 15.9232 121.812 16.1705C121.745 16.4126 121.712 16.6779 121.712 16.9664ZM133.048 19.3851C133.048 19.2254 133.002 19.0812 132.909 18.9524C132.817 18.8236 132.644 18.7051 132.391 18.5969C132.144 18.4836 131.786 18.3805 131.317 18.2878C130.895 18.1951 130.501 18.0792 130.135 17.9401C129.774 17.7958 129.46 17.6232 129.192 17.4223C128.93 17.2214 128.723 16.9844 128.574 16.7114C128.425 16.4332 128.35 16.1164 128.35 15.7609C128.35 15.4106 128.425 15.0809 128.574 14.7718C128.729 14.4627 128.948 14.1896 129.231 13.9526C129.519 13.7105 129.87 13.5225 130.282 13.3885C130.699 13.2494 131.168 13.1799 131.688 13.1799C132.415 13.1799 133.038 13.2958 133.558 13.5276C134.084 13.7595 134.486 14.0789 134.764 14.4858C135.047 14.8877 135.189 15.3462 135.189 15.8614H132.963C132.963 15.645 132.917 15.4518 132.824 15.2818C132.737 15.1066 132.598 14.9701 132.407 14.8722C132.221 14.7692 131.979 14.7177 131.681 14.7177C131.433 14.7177 131.219 14.7615 131.039 14.849C130.859 14.9315 130.72 15.0448 130.622 15.1891C130.529 15.3282 130.483 15.4827 130.483 15.6527C130.483 15.7815 130.509 15.8974 130.56 16.0005C130.617 16.0983 130.707 16.1885 130.831 16.2709C130.954 16.3533 131.114 16.4306 131.31 16.5027C131.511 16.5697 131.758 16.6315 132.051 16.6882C132.654 16.8118 133.193 16.9741 133.667 17.175C134.14 17.3708 134.517 17.6387 134.795 17.9787C135.073 18.3136 135.212 18.754 135.212 19.3001C135.212 19.6711 135.13 20.0111 134.965 20.3202C134.8 20.6293 134.563 20.8997 134.254 21.1316C133.945 21.3582 133.574 21.536 133.141 21.6648C132.713 21.7884 132.232 21.8502 131.696 21.8502C130.918 21.8502 130.259 21.7111 129.718 21.4329C129.182 21.1547 128.775 20.8019 128.497 20.3743C128.224 19.9415 128.087 19.4985 128.087 19.0451H130.197C130.207 19.3491 130.284 19.5938 130.429 19.7792C130.578 19.9647 130.766 20.0986 130.993 20.1811C131.225 20.2635 131.474 20.3047 131.742 20.3047C132.031 20.3047 132.27 20.2661 132.461 20.1888C132.652 20.1064 132.796 19.9982 132.894 19.8642C132.997 19.7251 133.048 19.5654 133.048 19.3851Z" fill="black"/>
<path d="M54.8684 29.983L56.3289 32.8075L57.7933 29.983H58.6395L56.6998 33.5068V35.6087H55.9541V33.5068L54.0145 29.983H54.8684ZM59.2051 33.5648V33.4759C59.2051 33.1745 59.2489 32.895 59.3365 32.6374C59.4241 32.3773 59.5503 32.1519 59.7151 31.9613C59.88 31.7681 60.0796 31.6187 60.314 31.5131C60.5484 31.4049 60.8112 31.3508 61.1022 31.3508C61.3959 31.3508 61.6599 31.4049 61.8943 31.5131C62.1313 31.6187 62.3322 31.7681 62.4971 31.9613C62.6645 32.1519 62.792 32.3773 62.8796 32.6374C62.9672 32.895 63.0109 33.1745 63.0109 33.4759V33.5648C63.0109 33.8661 62.9672 34.1456 62.8796 34.4032C62.792 34.6608 62.6645 34.8862 62.4971 35.0794C62.3322 35.27 62.1326 35.4194 61.8982 35.5276C61.6664 35.6332 61.4036 35.686 61.11 35.686C60.8163 35.686 60.5523 35.6332 60.3179 35.5276C60.0835 35.4194 59.8826 35.27 59.7151 35.0794C59.5503 34.8862 59.4241 34.6608 59.3365 34.4032C59.2489 34.1456 59.2051 33.8661 59.2051 33.5648ZM59.9199 33.4759V33.5648C59.9199 33.7734 59.9444 33.9705 59.9933 34.1559C60.0423 34.3388 60.1157 34.5011 60.2136 34.6428C60.314 34.7844 60.439 34.8965 60.5884 34.9789C60.7378 35.0588 60.9116 35.0987 61.11 35.0987C61.3057 35.0987 61.477 35.0588 61.6238 34.9789C61.7732 34.8965 61.8969 34.7844 61.9948 34.6428C62.0927 34.5011 62.1661 34.3388 62.215 34.1559C62.2665 33.9705 62.2923 33.7734 62.2923 33.5648V33.4759C62.2923 33.2698 62.2665 33.0753 62.215 32.8925C62.1661 32.707 62.0914 32.5434 61.9909 32.4018C61.893 32.2575 61.7694 32.1442 61.62 32.0617C61.4732 31.9793 61.3006 31.9381 61.1022 31.9381C60.9065 31.9381 60.7339 31.9793 60.5845 32.0617C60.4377 32.1442 60.314 32.2575 60.2136 32.4018C60.1157 32.5434 60.0423 32.707 59.9933 32.8925C59.9444 33.0753 59.9199 33.2698 59.9199 33.4759ZM66.8608 34.6428V31.4281H67.5795V35.6087H66.8956L66.8608 34.6428ZM66.9961 33.7618L67.2936 33.7541C67.2936 34.0323 67.264 34.2899 67.2047 34.5268C67.148 34.7612 67.0553 34.9647 66.9265 35.1373C66.7977 35.3099 66.629 35.4451 66.4204 35.543C66.2117 35.6383 65.958 35.686 65.6592 35.686C65.4557 35.686 65.2689 35.6564 65.0989 35.5971C64.9315 35.5379 64.7873 35.4464 64.6662 35.3228C64.5451 35.1991 64.4511 35.0382 64.3841 34.8398C64.3197 34.6415 64.2875 34.4032 64.2875 34.125V31.4281H65.0023V34.1327C65.0023 34.3208 65.023 34.4766 65.0642 34.6003C65.108 34.7213 65.1659 34.8179 65.238 34.89C65.3127 34.9596 65.3952 35.0085 65.4853 35.0369C65.5781 35.0652 65.6734 35.0794 65.7712 35.0794C66.0752 35.0794 66.316 35.0214 66.4938 34.9055C66.6715 34.787 66.799 34.6286 66.8763 34.4302C66.9561 34.2293 66.9961 34.0065 66.9961 33.7618ZM69.7795 32.0849V35.6087H69.0647V31.4281H69.7602L69.7795 32.0849ZM71.0855 31.4049L71.0816 32.0695C71.0224 32.0566 70.9657 32.0489 70.9116 32.0463C70.8601 32.0411 70.8009 32.0386 70.7339 32.0386C70.569 32.0386 70.4235 32.0643 70.2973 32.1158C70.1711 32.1674 70.0642 32.2395 69.9766 32.3322C69.889 32.4249 69.8195 32.5357 69.7679 32.6645C69.719 32.7907 69.6868 32.9298 69.6714 33.0818L69.4704 33.1977C69.4704 32.9453 69.4949 32.7083 69.5438 32.4868C69.5954 32.2652 69.6739 32.0695 69.7795 31.8995C69.8851 31.7269 70.0191 31.5929 70.1814 31.4976C70.3462 31.3997 70.542 31.3508 70.7687 31.3508C70.8202 31.3508 70.8794 31.3572 70.9464 31.3701C71.0134 31.3804 71.0597 31.392 71.0855 31.4049ZM78.283 32.4018V33.0084H75.2383V32.4018H78.283ZM75.3542 29.983V35.6087H74.6085V29.983H75.3542ZM78.9321 29.983V35.6087H78.1902V29.983H78.9321ZM82.2797 35.686C81.9886 35.686 81.7246 35.637 81.4876 35.5392C81.2532 35.4387 81.051 35.2983 80.881 35.118C80.7135 34.9377 80.5848 34.7239 80.4946 34.4766C80.4044 34.2293 80.3594 33.9589 80.3594 33.6652V33.5029C80.3594 33.1629 80.4096 32.8603 80.5101 32.5949C80.6105 32.3271 80.747 32.1004 80.9196 31.9149C81.0922 31.7295 81.288 31.5891 81.5069 31.4938C81.7259 31.3985 81.9525 31.3508 82.1869 31.3508C82.4857 31.3508 82.7433 31.4023 82.9597 31.5054C83.1786 31.6084 83.3577 31.7526 83.4968 31.9381C83.6359 32.121 83.7389 32.3374 83.8059 32.5872C83.8728 32.8345 83.9063 33.105 83.9063 33.3986V33.7193H80.7844V33.1359H83.1915V33.0818C83.1812 32.8963 83.1426 32.716 83.0756 32.5409C83.0112 32.3657 82.9082 32.2214 82.7665 32.1081C82.6248 31.9948 82.4316 31.9381 82.1869 31.9381C82.0247 31.9381 81.8753 31.9729 81.7387 32.0424C81.6022 32.1094 81.485 32.2099 81.3871 32.3438C81.2893 32.4777 81.2133 32.6413 81.1592 32.8345C81.1051 33.0277 81.078 33.2505 81.078 33.5029V33.6652C81.078 33.8636 81.1051 34.0503 81.1592 34.2255C81.2158 34.398 81.297 34.55 81.4026 34.6814C81.5108 34.8128 81.6409 34.9158 81.7928 34.9905C81.9474 35.0652 82.1225 35.1025 82.3183 35.1025C82.5707 35.1025 82.7845 35.051 82.9597 34.948C83.1349 34.845 83.2881 34.7072 83.4195 34.5346L83.8522 34.8784C83.7621 35.015 83.6475 35.145 83.5084 35.2687C83.3693 35.3923 83.198 35.4928 82.9945 35.5701C82.7936 35.6473 82.5553 35.686 82.2797 35.686ZM85.9132 29.6739V35.6087H85.1945V29.6739H85.9132ZM88.1712 32.2318V37.216H87.4525V31.4281H88.1094L88.1712 32.2318ZM90.9879 33.4836V33.5648C90.9879 33.8687 90.9518 34.1508 90.8797 34.4109C90.8076 34.6685 90.702 34.8926 90.5629 35.0832C90.4263 35.2738 90.2576 35.422 90.0567 35.5276C89.8558 35.6332 89.6253 35.686 89.3651 35.686C89.0998 35.686 88.8654 35.6422 88.6619 35.5546C88.4584 35.467 88.2858 35.3395 88.1441 35.1721C88.0025 35.0047 87.8891 34.8037 87.8041 34.5693C87.7217 34.3349 87.665 34.0709 87.6341 33.7773V33.3445C87.665 33.0354 87.723 32.7585 87.808 32.5138C87.893 32.2691 88.005 32.0605 88.1441 31.8879C88.2858 31.7127 88.4571 31.5801 88.658 31.4899C88.8589 31.3972 89.0908 31.3508 89.3535 31.3508C89.6162 31.3508 89.8494 31.4023 90.0528 31.5054C90.2563 31.6058 90.4276 31.7501 90.5667 31.9381C90.7058 32.1261 90.8102 32.3515 90.8797 32.6143C90.9518 32.8744 90.9879 33.1642 90.9879 33.4836ZM90.2692 33.5648V33.4836C90.2692 33.275 90.2473 33.0792 90.2035 32.8963C90.1597 32.7109 90.0915 32.5486 89.9988 32.4095C89.9086 32.2678 89.7927 32.1571 89.651 32.0772C89.5093 31.9948 89.3406 31.9536 89.1449 31.9536C88.9645 31.9536 88.8074 31.9845 88.6735 32.0463C88.5421 32.1081 88.4301 32.1918 88.3373 32.2974C88.2446 32.4005 88.1686 32.519 88.1094 32.6529C88.0527 32.7843 88.0102 32.9208 87.9819 33.0625V34.0632C88.0334 34.2435 88.1055 34.4135 88.1982 34.5732C88.291 34.7303 88.4146 34.8578 88.5692 34.9557C88.7237 35.051 88.9182 35.0987 89.1526 35.0987C89.3458 35.0987 89.5119 35.0588 89.651 34.9789C89.7927 34.8965 89.9086 34.7844 89.9988 34.6428C90.0915 34.5011 90.1597 34.3388 90.2035 34.1559C90.2473 33.9705 90.2692 33.7734 90.2692 33.5648ZM92.9445 34.7587V35.3344C92.9445 35.5688 92.8853 35.8161 92.7668 36.0762C92.6483 36.339 92.4821 36.5579 92.2683 36.7331L91.8626 36.451C91.9451 36.3377 92.0146 36.2218 92.0713 36.1033C92.128 35.9874 92.1705 35.8663 92.1988 35.7401C92.2297 35.6164 92.2452 35.4851 92.2452 35.346V34.7587H92.9445ZM98.6428 29.983V35.6087H97.9087V29.983H98.6428ZM100.451 29.983V30.5935H96.1043V29.983H100.451ZM102.288 29.6739V35.6087H101.573V29.6739H102.288ZM102.118 33.36L101.82 33.3484C101.823 33.0625 101.865 32.7984 101.948 32.5563C102.03 32.3116 102.146 32.0991 102.296 31.9188C102.445 31.7385 102.623 31.5994 102.829 31.5015C103.038 31.401 103.268 31.3508 103.52 31.3508C103.727 31.3508 103.912 31.3791 104.077 31.4358C104.242 31.4899 104.382 31.5775 104.498 31.6985C104.617 31.8196 104.707 31.9767 104.768 32.1699C104.83 32.3605 104.861 32.5937 104.861 32.8693V35.6087H104.143V32.8615C104.143 32.6426 104.11 32.4674 104.046 32.3361C103.982 32.2021 103.888 32.1055 103.764 32.0463C103.64 31.9845 103.488 31.9536 103.308 31.9536C103.13 31.9536 102.968 31.9909 102.821 32.0656C102.677 32.1403 102.552 32.2433 102.446 32.3747C102.343 32.5061 102.262 32.6568 102.203 32.8268C102.146 32.9942 102.118 33.1719 102.118 33.36ZM108.062 35.686C107.771 35.686 107.507 35.637 107.27 35.5392C107.035 35.4387 106.833 35.2983 106.663 35.118C106.496 34.9377 106.367 34.7239 106.277 34.4766C106.187 34.2293 106.142 33.9589 106.142 33.6652V33.5029C106.142 33.1629 106.192 32.8603 106.292 32.5949C106.393 32.3271 106.529 32.1004 106.702 31.9149C106.875 31.7295 107.07 31.5891 107.289 31.4938C107.508 31.3985 107.735 31.3508 107.969 31.3508C108.268 31.3508 108.526 31.4023 108.742 31.5054C108.961 31.6084 109.14 31.7526 109.279 31.9381C109.418 32.121 109.521 32.3374 109.588 32.5872C109.655 32.8345 109.689 33.105 109.689 33.3986V33.7193H106.567V33.1359H108.974V33.0818C108.964 32.8963 108.925 32.716 108.858 32.5409C108.794 32.3657 108.69 32.2214 108.549 32.1081C108.407 31.9948 108.214 31.9381 107.969 31.9381C107.807 31.9381 107.658 31.9729 107.521 32.0424C107.385 32.1094 107.267 32.2099 107.169 32.3438C107.072 32.4777 106.996 32.6413 106.941 32.8345C106.887 33.0277 106.86 33.2505 106.86 33.5029V33.6652C106.86 33.8636 106.887 34.0503 106.941 34.2255C106.998 34.398 107.079 34.55 107.185 34.6814C107.293 34.8128 107.423 34.9158 107.575 34.9905C107.73 35.0652 107.905 35.1025 108.101 35.1025C108.353 35.1025 108.567 35.051 108.742 34.948C108.917 34.845 109.07 34.7072 109.202 34.5346L109.635 34.8784C109.544 35.015 109.43 35.145 109.291 35.2687C109.152 35.3923 108.98 35.4928 108.777 35.5701C108.576 35.6473 108.338 35.686 108.062 35.686ZM111.695 31.4281V35.6087H110.977V31.4281H111.695ZM110.923 30.3192C110.923 30.2033 110.957 30.1054 111.027 30.0255C111.099 29.9457 111.205 29.9057 111.344 29.9057C111.48 29.9057 111.585 29.9457 111.657 30.0255C111.732 30.1054 111.769 30.2033 111.769 30.3192C111.769 30.4299 111.732 30.5252 111.657 30.6051C111.585 30.6824 111.48 30.721 111.344 30.721C111.205 30.721 111.099 30.6824 111.027 30.6051C110.957 30.5252 110.923 30.4299 110.923 30.3192ZM113.953 32.0849V35.6087H113.239V31.4281H113.934L113.953 32.0849ZM115.259 31.4049L115.256 32.0695C115.196 32.0566 115.14 32.0489 115.086 32.0463C115.034 32.0411 114.975 32.0386 114.908 32.0386C114.743 32.0386 114.597 32.0643 114.471 32.1158C114.345 32.1674 114.238 32.2395 114.151 32.3322C114.063 32.4249 113.993 32.5357 113.942 32.6645C113.893 32.7907 113.861 32.9298 113.845 33.0818L113.644 33.1977C113.644 32.9453 113.669 32.7083 113.718 32.4868C113.769 32.2652 113.848 32.0695 113.953 31.8995C114.059 31.7269 114.193 31.5929 114.355 31.4976C114.52 31.3997 114.716 31.3508 114.943 31.3508C114.994 31.3508 115.053 31.3572 115.12 31.3701C115.187 31.3804 115.234 31.392 115.259 31.4049ZM122.457 32.4018V33.0084H119.412V32.4018H122.457ZM119.528 29.983V35.6087H118.782V29.983H119.528ZM123.106 29.983V35.6087H122.364V29.983H123.106ZM124.529 33.5648V33.4759C124.529 33.1745 124.573 32.895 124.661 32.6374C124.748 32.3773 124.875 32.1519 125.039 31.9613C125.204 31.7681 125.404 31.6187 125.638 31.5131C125.873 31.4049 126.135 31.3508 126.427 31.3508C126.72 31.3508 126.984 31.4049 127.219 31.5131C127.456 31.6187 127.657 31.7681 127.821 31.9613C127.989 32.1519 128.116 32.3773 128.204 32.6374C128.291 32.895 128.335 33.1745 128.335 33.4759V33.5648C128.335 33.8661 128.291 34.1456 128.204 34.4032C128.116 34.6608 127.989 34.8862 127.821 35.0794C127.657 35.27 127.457 35.4194 127.223 35.5276C126.991 35.6332 126.728 35.686 126.434 35.686C126.141 35.686 125.877 35.6332 125.642 35.5276C125.408 35.4194 125.207 35.27 125.039 35.0794C124.875 34.8862 124.748 34.6608 124.661 34.4032C124.573 34.1456 124.529 33.8661 124.529 33.5648ZM125.244 33.4759V33.5648C125.244 33.7734 125.269 33.9705 125.318 34.1559C125.367 34.3388 125.44 34.5011 125.538 34.6428C125.638 34.7844 125.763 34.8965 125.913 34.9789C126.062 35.0588 126.236 35.0987 126.434 35.0987C126.63 35.0987 126.801 35.0588 126.948 34.9789C127.098 34.8965 127.221 34.7844 127.319 34.6428C127.417 34.5011 127.49 34.3388 127.539 34.1559C127.591 33.9705 127.617 33.7734 127.617 33.5648V33.4759C127.617 33.2698 127.591 33.0753 127.539 32.8925C127.49 32.707 127.416 32.5434 127.315 32.4018C127.217 32.2575 127.094 32.1442 126.944 32.0617C126.797 31.9793 126.625 31.9381 126.427 31.9381C126.231 31.9381 126.058 31.9793 125.909 32.0617C125.762 32.1442 125.638 32.2575 125.538 32.4018C125.44 32.5434 125.367 32.707 125.318 32.8925C125.269 33.0753 125.244 33.2698 125.244 33.4759ZM130.342 32.2318V37.216H129.623V31.4281H130.28L130.342 32.2318ZM133.159 33.4836V33.5648C133.159 33.8687 133.123 34.1508 133.051 34.4109C132.979 34.6685 132.873 34.8926 132.734 35.0832C132.597 35.2738 132.429 35.422 132.228 35.5276C132.027 35.6332 131.796 35.686 131.536 35.686C131.271 35.686 131.036 35.6422 130.833 35.5546C130.629 35.467 130.457 35.3395 130.315 35.1721C130.173 35.0047 130.06 34.8037 129.975 34.5693C129.893 34.3349 129.836 34.0709 129.805 33.7773V33.3445C129.836 33.0354 129.894 32.7585 129.979 32.5138C130.064 32.2691 130.176 32.0605 130.315 31.8879C130.457 31.7127 130.628 31.5801 130.829 31.4899C131.03 31.3972 131.262 31.3508 131.524 31.3508C131.787 31.3508 132.02 31.4023 132.224 31.5054C132.427 31.6058 132.599 31.7501 132.738 31.9381C132.877 32.1261 132.981 32.3515 133.051 32.6143C133.123 32.8744 133.159 33.1642 133.159 33.4836ZM132.44 33.5648V33.4836C132.44 33.275 132.418 33.0792 132.374 32.8963C132.331 32.7109 132.262 32.5486 132.17 32.4095C132.08 32.2678 131.964 32.1571 131.822 32.0772C131.68 31.9948 131.512 31.9536 131.316 31.9536C131.136 31.9536 130.978 31.9845 130.844 32.0463C130.713 32.1081 130.601 32.1918 130.508 32.2974C130.416 32.4005 130.34 32.519 130.28 32.6529C130.224 32.7843 130.181 32.9208 130.153 33.0625V34.0632C130.204 34.2435 130.276 34.4135 130.369 34.5732C130.462 34.7303 130.586 34.8578 130.74 34.9557C130.895 35.051 131.089 35.0987 131.324 35.0987C131.517 35.0987 131.683 35.0588 131.822 34.9789C131.964 34.8965 132.08 34.7844 132.17 34.6428C132.262 34.5011 132.331 34.3388 132.374 34.1559C132.418 33.9705 132.44 33.7734 132.44 33.5648ZM136.201 35.686C135.91 35.686 135.646 35.637 135.409 35.5392C135.175 35.4387 134.973 35.2983 134.802 35.118C134.635 34.9377 134.506 34.7239 134.416 34.4766C134.326 34.2293 134.281 33.9589 134.281 33.6652V33.5029C134.281 33.1629 134.331 32.8603 134.432 32.5949C134.532 32.3271 134.669 32.1004 134.841 31.9149C135.014 31.7295 135.209 31.5891 135.428 31.4938C135.647 31.3985 135.874 31.3508 136.108 31.3508C136.407 31.3508 136.665 31.4023 136.881 31.5054C137.1 31.6084 137.279 31.7526 137.418 31.9381C137.557 32.121 137.66 32.3374 137.727 32.5872C137.794 32.8345 137.828 33.105 137.828 33.3986V33.7193H134.706V33.1359H137.113V33.0818C137.103 32.8963 137.064 32.716 136.997 32.5409C136.933 32.3657 136.83 32.2214 136.688 32.1081C136.546 31.9948 136.353 31.9381 136.108 31.9381C135.946 31.9381 135.797 31.9729 135.66 32.0424C135.524 32.1094 135.407 32.2099 135.309 32.3438C135.211 32.4777 135.135 32.6413 135.081 32.8345C135.027 33.0277 135 33.2505 135 33.5029V33.6652C135 33.8636 135.027 34.0503 135.081 34.2255C135.137 34.398 135.219 34.55 135.324 34.6814C135.432 34.8128 135.562 34.9158 135.714 34.9905C135.869 35.0652 136.044 35.1025 136.24 35.1025C136.492 35.1025 136.706 35.051 136.881 34.948C137.056 34.845 137.21 34.7072 137.341 34.5346L137.774 34.8784C137.684 35.015 137.569 35.145 137.43 35.2687C137.291 35.3923 137.119 35.4928 136.916 35.5701C136.715 35.6473 136.477 35.686 136.201 35.686ZM139.07 35.2301C139.07 35.109 139.107 35.0072 139.182 34.9248C139.259 34.8398 139.37 34.7973 139.514 34.7973C139.658 34.7973 139.768 34.8398 139.842 34.9248C139.92 35.0072 139.958 35.109 139.958 35.2301C139.958 35.3485 139.92 35.449 139.842 35.5314C139.768 35.6139 139.658 35.6551 139.514 35.6551C139.37 35.6551 139.259 35.6139 139.182 35.5314C139.107 35.449 139.07 35.3485 139.07 35.2301Z" fill="black"/>
<path d="M20.6021 31.9977C23.6844 27.2418 32.7453 24.5812 32.7453 24.5812C35.168 23.2257 37.4686 21.7283 39.4404 21.2738C40.852 20.9479 43.2143 22.8771 41.1914 24.6835C40.132 25.63 37.7306 27.8113 37.7306 27.8113L43.4451 26.088L43.5701 25.7713C44.2063 24.1602 44.6621 22.4859 44.9845 20.7839C45.2962 19.1351 46.0985 17.0142 48.1605 17.0149C48.7776 17.0149 49.1113 17.4431 49.2604 18.1162C50.1238 15.129 49.952 13.2112 49.952 13.2112H49.9506C49.9577 13.0429 49.9641 12.8753 49.9641 12.7056C49.9634 5.8991 44.2233 0 37.1427 0C31.9657 0 27.5087 3.33298 25.4844 7.57908H25.4815C23.4572 3.33298 19.0002 0 13.8232 0C6.74187 0 1.00182 5.8991 1.00182 12.7049C1.00182 12.8746 1.00821 13.0429 1.01531 13.2105H1.01389C1.01389 13.2105 0.290349 21.2951 9.2874 30.1225C12.6537 33.4952 16.3496 36.7316 21.7481 41.1822C19.7947 38.9072 18.2518 35.6247 20.6021 31.9977Z" fill="#94E941"/>
<path d="M35.4869 29.3929C35.4869 29.3929 40.1313 25.1766 41.1914 24.2301C43.2144 22.4237 40.8528 20.4952 39.4405 20.8204C37.4686 21.2756 35.1674 22.7731 32.7454 24.1279C32.7454 24.1279 23.6837 26.7884 20.6021 31.5443C16.1934 38.348 25.4837 43.9404 25.4837 43.9404C29.4564 40.1643 32.9854 37.5443 37.1179 35.6435C40.1335 34.256 43.2982 32.8601 44.3242 32.6165C46.4629 32.1088 47.7488 27.7541 48.3374 24.9295C48.8863 22.2945 50.4242 16.5616 48.1599 16.5616C46.0979 16.5616 45.2962 18.6818 44.9838 20.3305C44.6622 22.0325 44.2056 23.7068 43.5694 25.3179L43.4444 25.6346L37.7299 27.3579" fill="#2A9E39"/>
<path d="M35.4869 29.3929C35.4869 29.3929 40.1313 25.1766 41.1914 24.2301C43.2144 22.4237 40.8528 20.4952 39.4405 20.8204C37.4686 21.2756 35.1674 22.7731 32.7454 24.1279C32.7454 24.1279 23.6837 26.7884 20.6021 31.5443C16.1934 38.348 25.4837 43.9404 25.4837 43.9404C29.4564 40.1643 32.9854 37.5443 37.1179 35.6435C40.1335 34.256 43.2982 32.8601 44.3242 32.6165C46.4629 32.1088 47.7488 27.7541 48.3374 24.9295C48.8863 22.2945 50.4242 16.5616 48.1599 16.5616C46.0979 16.5616 45.2962 18.6818 44.9838 20.3305C44.6622 22.0325 44.2056 23.7068 43.5694 25.3179L43.4444 25.6346L37.7299 27.3579" stroke="white" stroke-width="1.48827" stroke-miterlimit="10"/>
<path d="M15.4529 29.5206C15.4529 29.5206 10.8085 25.3043 9.74838 24.3578C7.72544 22.5514 10.0871 20.6229 11.4994 20.9482C13.4712 21.4033 15.7724 22.9008 18.1944 24.2556C18.1944 24.2556 27.2561 26.9161 30.3377 31.672C34.7464 38.4758 25.4561 44.0681 25.4561 44.0681C21.4834 40.2921 17.9544 37.672 13.8219 35.7712C10.8064 34.3837 7.64166 32.9878 6.61563 32.7442C4.47696 32.2365 3.19106 27.8818 2.60243 25.0572C2.05356 22.4222 0.515589 16.6893 2.77994 16.6893C4.84193 16.6893 5.64357 18.8095 5.956 20.4582C6.27765 22.1602 6.73421 23.8345 7.37041 25.4456L7.49538 25.7623L13.2099 27.4856" fill="#2A9E39"/>
<path d="M15.4529 29.5206C15.4529 29.5206 10.8085 25.3043 9.74838 24.3578C7.72544 22.5514 10.0871 20.6229 11.4994 20.9482C13.4712 21.4033 15.7724 22.9008 18.1944 24.2556C18.1944 24.2556 27.2561 26.9161 30.3377 31.672C34.7464 38.4758 25.4561 44.0681 25.4561 44.0681C21.4834 40.2921 17.9544 37.672 13.8219 35.7712C10.8064 34.3837 7.64166 32.9878 6.61563 32.7442C4.47696 32.2365 3.19106 27.8818 2.60243 25.0572C2.05356 22.4222 0.515589 16.6893 2.77994 16.6893C4.84193 16.6893 5.64357 18.8095 5.95599 20.4582C6.27765 22.1602 6.73421 23.8345 7.37041 25.4456L7.49538 25.7623L13.2099 27.4856" stroke="white" stroke-width="1.48827" stroke-miterlimit="10"/>
</svg>
