<svg width="17" height="17" viewBox="0 0 17 17" fill="none" xmlns="http://www.w3.org/2000/svg">
<g opacity="0.7">
<path d="M1.4035 15.4385H9.1228C12.6109 15.4385 15.4386 12.6108 15.4386 9.12267C15.4386 5.63456 12.6109 2.80688 9.1228 2.80688C5.87189 2.80688 3.15609 5.26306 2.80701 8.42092" stroke="#23262F" stroke-width="1.05263" stroke-linecap="round"/>
<path d="M12.9824 3.85971L13.6842 3.15796M3.85962 3.15796L4.56137 3.85971" stroke="#23262F" stroke-width="1.05263" stroke-linecap="round" stroke-linejoin="round"/>
<path d="M11.579 6.31567L9.51634 8.37839M9.51634 8.37839C9.32582 8.18786 9.06266 8.07004 8.77199 8.07004C8.19066 8.07004 7.71936 8.54134 7.71936 9.12267C7.71936 9.70407 8.19066 10.1753 8.77199 10.1753C9.35333 10.1753 9.82462 9.70407 9.82462 9.12267C9.82462 8.832 9.7068 8.56885 9.51634 8.37839Z" stroke="#23262F" stroke-width="1.05263" stroke-linecap="round"/>
<path d="M8.77191 2.4562V1.40356" stroke="#23262F" stroke-width="1.05263" stroke-linecap="round" stroke-linejoin="round"/>
<path d="M7.36841 1.40356H10.1754" stroke="#23262F" stroke-width="1.05263" stroke-linecap="round" stroke-linejoin="round"/>
<path d="M1.4035 10.5264H3.50877" stroke="#23262F" stroke-width="1.05263" stroke-linecap="round" stroke-linejoin="round"/>
<path d="M1.4035 13.3333H4.91228" stroke="#23262F" stroke-width="1.05263" stroke-linecap="round" stroke-linejoin="round"/>
</g>
</svg>
